<svg version="1" xmlns="http://www.w3.org/2000/svg" width="336" height="336" viewBox="0 0 252.000000 252.000000"><path d="M6.8 1.6C3.4 3.4 1 7.8 1 12.1c0 2.1 18.1 39.7 57.7 119.6C121.1 257.5 118 252 126 252s4.9 5.5 67.3-120.3C235.2 47.1 251 14.3 251 11.9c0-3.9-2.8-8.7-6.2-10.5C243 .3 218.9.1 126 .1 24.9.1 9.1.3 6.8 1.6zm217.9 14.6c1.3 1.2 2.3 2.9 2.3 3.9 0 .9-7 16-15.6 33.6-44.7 91-61.4 123.5-63.9 124.4-5.1 1.7-5.7.8-30.2-48.8C68.2 29.7 64.1 21 64.9 18.7 66.6 14 66 14 146.4 14h76l2.3 2.2z"/></svg>